<?xml version="1.0" standalone="no"?>
<!DOCTYPE svg PUBLIC "-//W3C//DTD SVG 20010904//EN"
 "http://www.w3.org/TR/2001/REC-SVG-20010904/DTD/svg10.dtd">
<svg version="1.0" xmlns="http://www.w3.org/2000/svg"
 width="512.000000pt" height="512.000000pt" viewBox="0 0 512.000000 512.000000"
 preserveAspectRatio="xMidYMid meet">
<metadata>
Created by potrace 1.14, written by Peter Selinger 2001-2017
</metadata>
<g transform="translate(0.000000,512.000000) scale(0.100000,-0.100000)"
fill="#000000" stroke="none">
<path d="M2325 5101 c-16 -5 -53 -9 -80 -10 -28 0 -66 -6 -85 -11 -19 -6 -91
-22 -160 -36 -141 -28 -316 -73 -404 -103 -56 -20 -83 -32 -236 -105 -72 -35
-279 -168 -385 -248 -174 -133 -406 -377 -508 -538 -70 -110 -197 -324 -197
-332 0 -5 -24 -70 -54 -146 -88 -224 -131 -417 -166 -752 -19 -181 -9 -325 50
-689 38 -233 112 -477 173 -570 13 -20 37 -57 53 -82 208 -329 345 -510 529
-698 204 -208 279 -271 428 -359 119 -71 155 -88 307 -147 52 -20 155 -61 229
-91 212 -87 315 -104 654 -104 291 0 375 10 408 49 12 14 20 16 34 9 21 -12
108 -4 180 17 28 8 88 24 133 35 123 29 214 78 150 81 -78 3 -125 -4 -150 -21
-16 -12 -41 -19 -62 -18 -21 1 -43 -6 -54 -15 -24 -22 -29 -22 -64 8 -16 14
-39 25 -51 25 -36 -1 -108 -38 -114 -60 -6 -24 -12 -24 -37 -5 -30 23 -63 18
-82 -10 -15 -24 -21 -25 -105 -25 -54 0 -90 4 -95 11 -4 7 -27 10 -63 7 -42
-4 -59 -1 -67 10 -17 23 -100 -4 -126 -41 -26 -36 -35 -34 -54 12 -18 45 -38
54 -82 36 -22 -10 -49 -11 -99 -5 -37 5 -85 6 -105 3 -48 -7 -96 22 -127 76
-36 66 -79 77 -141 40 -32 -20 -35 -20 -45 -4 -27 47 -52 65 -99 74 -35 6 -57
18 -79 41 -27 29 -35 32 -71 27 -40 -5 -42 -4 -70 40 -34 52 -49 60 -82 43
-35 -19 -74 0 -74 37 -1 32 -43 84 -87 107 -16 8 -41 37 -56 65 -30 54 -60 81
-90 81 -28 0 -57 28 -187 175 -55 62 -80 98 -80 116 0 17 -8 29 -23 36 -24 11
-107 156 -107 187 0 9 -17 35 -38 59 -45 50 -72 91 -72 110 0 24 -64 124 -85
133 -28 13 -59 81 -61 137 -2 65 -1 62 -30 76 -22 10 -25 16 -21 44 2 18 -1
44 -9 58 -7 15 -11 29 -8 32 12 12 21 123 12 141 -6 11 -10 39 -10 64 1 53
-16 98 -63 162 -19 26 -35 52 -35 57 0 6 13 27 30 48 35 45 37 62 9 116 -19
39 -20 44 -6 112 14 70 14 71 -9 94 -28 27 -31 55 -9 73 16 13 31 43 59 118
14 38 15 46 1 72 -8 16 -19 32 -25 35 -5 3 -10 29 -10 58 0 38 6 60 25 86 13
20 31 66 38 103 8 37 23 80 33 94 46 65 53 81 64 148 6 39 20 83 31 98 10 15
19 37 19 48 0 35 18 59 60 80 36 18 40 24 40 58 0 34 7 46 60 96 45 43 60 65
60 85 0 16 8 36 19 45 10 9 24 37 31 61 14 52 24 61 94 95 38 19 60 39 87 79
24 36 51 62 80 77 24 12 54 35 66 52 14 19 36 33 65 40 25 6 53 21 64 33 31
35 132 107 181 129 46 20 188 134 197 157 3 8 23 13 51 13 58 0 108 21 167 71
42 35 52 39 102 39 42 0 73 8 122 31 57 27 69 30 89 19 29 -15 129 -5 163 16
14 10 44 14 80 13 128 -3 280 11 332 31 38 15 56 17 70 10 10 -5 54 -10 97
-11 130 -1 273 -23 327 -51 23 -12 163 -58 177 -58 10 0 101 -42 129 -59 8 -6
37 -13 63 -16 40 -5 50 -11 59 -33 27 -63 59 -74 141 -51 56 15 101 -3 124
-49 16 -32 24 -38 63 -44 80 -13 89 -18 119 -62 17 -25 41 -46 56 -50 15 -4
32 -21 45 -46 14 -28 37 -49 80 -74 34 -20 70 -36 80 -36 34 0 67 -21 82 -54
9 -18 39 -47 67 -66 44 -31 51 -39 51 -70 0 -51 22 -76 101 -116 39 -19 72
-41 75 -48 3 -8 1 -30 -4 -50 -10 -34 -9 -38 22 -61 18 -14 38 -25 44 -25 6 0
12 -3 15 -7 2 -5 2 -2 1 5 -6 22 25 13 42 -12 15 -23 14 -27 -7 -56 -28 -37
-19 -58 32 -75 35 -12 49 -39 30 -58 -15 -15 -14 -90 1 -105 7 -7 23 -12 37
-12 44 0 57 -14 43 -45 -24 -52 -16 -81 33 -115 24 -17 49 -38 54 -48 16 -27
14 36 -4 105 -15 59 -20 71 -97 248 -42 98 -129 225 -283 415 -146 180 -344
367 -520 492 -166 118 -580 305 -885 399 -52 16 -104 35 -115 41 -11 6 -51 15
-90 20 -96 12 -583 19 -620 9z"/>
<path d="M2557 4655 c-110 -39 -165 -82 -180 -140 l-5 -20 -1 20 c-4 46 -91
109 -166 120 -105 16 -224 6 -330 -27 -55 -17 -111 -39 -125 -48 -14 -9 -64
-36 -112 -60 -70 -34 -111 -65 -209 -155 -67 -62 -126 -121 -132 -131 -6 -10
-14 -37 -17 -59 -5 -38 -7 -40 -45 -46 -22 -3 -71 -18 -109 -32 -37 -15 -78
-27 -91 -27 -29 0 -108 -70 -137 -121 -12 -21 -25 -39 -29 -39 -4 0 -11 -9
-14 -21 -4 -12 -34 -49 -67 -83 -78 -79 -105 -139 -119 -266 -13 -111 -5 -149
38 -177 30 -20 29 -29 -2 -37 -44 -11 -106 -77 -142 -151 -18 -38 -33 -78 -33
-88 0 -10 -7 -44 -16 -75 -13 -44 -15 -79 -10 -167 21 -355 25 -376 100 -446
l45 -43 -29 -32 c-43 -49 -55 -120 -42 -243 7 -71 19 -119 37 -159 14 -31 37
-91 51 -132 14 -41 39 -92 55 -113 17 -20 35 -52 41 -70 6 -17 28 -52 48 -77
20 -25 49 -64 64 -88 32 -52 100 -102 137 -102 36 0 44 -14 29 -50 -24 -58 0
-108 125 -261 26 -32 62 -64 84 -74 21 -9 44 -28 49 -41 7 -13 37 -36 71 -54
33 -16 75 -43 93 -58 50 -43 99 -62 165 -63 91 -2 159 24 215 84 40 43 48 48
54 32 4 -10 0 -31 -11 -51 -24 -45 -14 -112 23 -146 35 -32 119 -87 151 -100
37 -14 201 -37 218 -31 8 3 32 0 54 -7 32 -11 49 -11 87 -1 26 7 73 16 104 21
32 6 75 17 95 26 21 9 60 17 87 18 48 1 50 2 58 36 16 65 30 88 57 100 21 8
30 22 40 60 16 62 36 65 79 10 23 -28 43 -41 69 -46 20 -4 51 -15 69 -26 27
-16 39 -17 75 -9 24 6 57 11 72 11 30 0 142 51 219 99 26 17 65 35 86 42 21 6
64 34 95 61 44 39 57 56 57 78 0 30 22 60 45 60 18 0 25 23 25 89 0 32 3 60 6
63 3 4 21 0 39 -8 19 -8 63 -14 97 -14 67 0 120 21 200 80 65 46 139 157 165
245 8 27 26 62 39 78 13 15 28 47 34 70 6 23 16 56 21 73 5 17 9 68 9 113 0
68 -4 87 -20 108 l-20 26 56 54 c31 29 62 53 68 53 16 0 85 76 96 106 6 14 10
41 10 60 0 19 13 57 29 87 29 51 30 55 30 195 0 78 2 166 6 195 9 80 -29 237
-73 301 -15 21 -37 54 -50 73 -12 18 -38 41 -57 50 -40 19 -44 37 -14 62 39
31 36 93 -14 306 -26 113 -105 237 -175 274 -13 7 -22 26 -27 58 -11 73 -47
134 -117 195 -80 70 -160 111 -268 139 -105 27 -142 22 -200 -28 l-43 -37 7
29 c17 68 18 123 1 154 -9 18 -55 72 -103 120 -72 72 -102 94 -172 128 -47 22
-102 43 -124 47 -21 4 -57 16 -80 26 -112 50 -177 63 -331 66 -138 3 -156 1
-218 -21z m463 -309 c0 -3 -4 -8 -10 -11 -5 -3 -10 -1 -10 4 0 6 5 11 10 11 6
0 10 -2 10 -4z m175 -445 c-3 -6 -11 -11 -17 -11 -6 0 -6 6 2 15 14 17 26 13
15 -4z m-265 -190 c0 -14 -18 -23 -30 -16 -6 4 -8 11 -5 16 8 12 35 12 35 0z
m291 -120 c-32 -63 -37 -73 -60 -125 -13 -27 -31 -61 -42 -75 -11 -14 -42 -60
-70 -101 -27 -41 -59 -89 -72 -107 -35 -51 -72 -113 -103 -173 -16 -30 -38
-69 -50 -87 -24 -35 -38 -126 -24 -153 19 -35 65 -44 154 -30 44 7 95 19 113
27 18 7 48 13 66 13 19 0 60 9 93 21 53 19 98 32 304 89 85 24 117 35 162 54
21 9 57 15 80 15 29 -1 34 -3 16 -6 -14 -2 -32 -11 -38 -19 -7 -8 -20 -14 -29
-14 -9 0 -21 -4 -26 -8 -6 -5 -30 -14 -55 -21 -25 -7 -70 -24 -100 -38 -30
-14 -93 -37 -140 -52 -47 -15 -94 -33 -105 -39 -11 -6 -47 -15 -79 -21 -89
-16 -281 -78 -306 -99 -31 -25 -18 -42 31 -42 30 0 46 -6 64 -26 43 -47 29
-54 -64 -32 -58 13 -72 7 -46 -22 33 -36 244 -103 321 -101 64 2 219 -42 329
-93 148 -69 168 -80 155 -84 -18 -6 -118 25 -185 59 -33 16 -75 29 -93 29 -18
0 -58 9 -90 19 -216 73 -425 101 -491 67 -35 -19 -35 -16 -10 -104 6 -23 9
-46 5 -49 -3 -3 -30 2 -60 12 -47 16 -58 17 -86 5 -18 -7 -45 -27 -60 -44 -28
-29 -29 -32 -23 -115 3 -48 14 -115 24 -150 23 -76 24 -87 5 -72 -8 6 -16 26
-19 44 -20 117 -36 198 -43 209 -37 65 -85 75 -133 26 l-31 -32 0 48 c0 79
-43 135 -93 121 -54 -16 -111 -48 -161 -93 -114 -101 -254 -210 -318 -248 -10
-6 -47 -36 -81 -67 -35 -31 -81 -68 -103 -83 -21 -14 -49 -35 -61 -47 -13 -11
-23 -16 -23 -10 0 9 13 21 55 51 6 4 20 25 31 47 12 22 34 47 50 55 16 8 50
36 76 63 26 26 55 47 63 47 9 0 54 37 100 83 46 45 99 94 117 109 18 15 57 46
86 69 52 42 52 43 52 100 0 75 -10 83 -108 80 -127 -5 -253 -3 -271 4 -28 11
28 34 86 35 50 0 157 21 207 40 30 11 56 58 56 101 0 42 -93 139 -133 139 -14
0 -29 5 -32 11 -7 10 -147 79 -162 79 -4 0 -48 21 -98 45 -49 25 -98 45 -107
45 -10 0 -18 5 -18 11 0 12 35 8 85 -9 17 -6 57 -16 90 -23 33 -7 77 -21 97
-31 21 -10 44 -18 51 -18 8 0 43 -13 78 -29 83 -37 115 -44 139 -31 26 14 25
24 -2 50 -19 17 -21 24 -10 40 22 35 14 73 -22 111 -46 47 -111 155 -98 163
10 6 40 -20 84 -74 20 -25 51 -61 70 -81 18 -20 46 -55 61 -78 31 -45 55 -52
75 -21 15 25 42 15 42 -16 0 -39 19 -28 41 24 16 35 22 72 24 152 4 163 23
438 30 450 25 40 43 -86 55 -373 4 -120 11 -221 14 -224 8 -8 15 15 19 62 l3
40 14 -30 c7 -16 14 -62 15 -102 0 -40 6 -78 13 -86 38 -45 124 -12 174 66 41
64 54 85 70 117 38 74 172 283 276 433 34 48 64 98 68 112 7 29 57 81 62 66 2
-6 -5 -29 -17 -50z m949 40 c0 -12 -20 -25 -27 -18 -7 7 6 27 18 27 5 0 9 -4
9 -9z m-1300 -294 c0 -21 -36 -49 -57 -45 -16 3 -15 7 9 31 29 29 48 35 48 14z
m610 -48 c0 -5 -4 -9 -10 -9 -5 0 -10 7 -10 16 0 8 5 12 10 9 6 -3 10 -10 10
-16z m-1114 -56 c3 -16 10 -38 15 -51 14 -35 11 -59 -12 -104 l-21 -42 -15 27
c-15 29 -13 70 6 106 8 15 9 27 1 40 -14 28 -12 51 5 51 8 0 17 -12 21 -27z
m404 1 c0 -14 -21 -19 -33 -7 -9 9 13 34 24 27 5 -3 9 -12 9 -20z m-549 -33
c-12 -22 -41 -29 -41 -9 0 6 8 20 17 30 21 24 39 8 24 -21z m-1432 -224 c13
-16 5 -27 -19 -27 -20 0 -43 24 -33 33 11 12 40 8 52 -6z m1101 -287 c0 -5 -7
-10 -15 -10 -8 0 -15 5 -15 10 0 6 7 10 15 10 8 0 15 -4 15 -10z m-353 -96 c4
-11 -46 -36 -58 -28 -16 9 -10 24 14 34 25 10 39 8 44 -6z m43 -54 c0 -5 -4
-10 -10 -10 -5 0 -10 5 -10 10 0 6 5 10 10 10 6 0 10 -4 10 -10z m744 -299
c14 -15 16 -28 11 -52 -12 -54 -41 -112 -71 -144 -25 -26 -29 -28 -32 -12 -2
10 3 26 12 36 12 13 17 39 17 92 2 97 23 124 63 80z m595 -80 c15 -23 15 -24
-7 -10 -12 7 -24 20 -27 27 -8 21 17 9 34 -17z m-514 -68 c-9 -37 -18 -20 -9
19 4 18 9 27 11 20 3 -7 2 -24 -2 -39z m-1624 -126 c-1 -12 -15 -9 -19 4 -3 6
1 10 8 8 6 -3 11 -8 11 -12z m2367 -76 c7 -20 -34 5 -42 25 -6 15 -4 15 16 2
12 -8 24 -20 26 -27z m562 -41 c24 -24 26 -40 6 -40 -14 0 -46 36 -46 52 0 14
20 8 40 -12z m-1500 -191 c-12 -30 -25 -58 -29 -64 -5 -5 -11 -23 -15 -39 -6
-23 -9 -27 -17 -15 -16 25 -10 65 15 88 13 12 32 37 42 56 26 49 28 36 4 -26z
m1277 14 c60 -63 76 -89 69 -109 -8 -21 -96 68 -96 98 0 12 -7 30 -17 40 -9
10 -13 18 -9 18 5 0 28 -21 53 -47z m-1377 -261 c0 -10 -6 -26 -13 -36 -13
-18 -14 -18 -20 -2 -8 19 8 56 23 56 6 0 10 -8 10 -18z m-432 -189 c2 -14 -4
-23 -18 -28 -11 -4 -28 -17 -36 -31 -16 -23 -44 -33 -44 -15 0 4 9 20 20 34
11 14 20 30 20 36 0 12 31 31 45 27 6 -1 11 -12 13 -23z m132 14 c0 -7 -6 -22
-14 -33 -14 -18 -15 -18 -21 -1 -7 17 10 47 26 47 5 0 9 -6 9 -13z m-60 -22
c0 -17 -36 -39 -50 -30 -14 9 -12 32 3 38 24 10 47 7 47 -8z m-273 -32 c10
-25 -100 -113 -141 -113 -11 0 113 126 127 129 4 0 11 -7 14 -16z m1213 -89
c0 -16 -16 -19 -25 -4 -8 13 4 32 16 25 5 -4 9 -13 9 -21z m148 -58 c3 -12 -1
-17 -10 -14 -7 3 -15 13 -16 22 -3 12 1 17 10 14 7 -3 15 -13 16 -22z m-168
-110 c0 -8 -4 -17 -9 -21 -12 -7 -24 12 -16 25 9 15 25 12 25 -4z"/>
<path d="M4960 3284 c0 -11 -18 -38 -40 -59 -55 -53 -54 -86 1 -121 40 -25 41
-26 36 -72 -3 -26 -9 -61 -12 -78 -6 -28 -4 -32 22 -37 27 -5 30 -11 41 -70 7
-35 12 -75 12 -87 0 -13 5 -38 12 -56 9 -25 8 -39 -4 -70 -9 -22 -13 -55 -10
-76 l4 -38 -32 7 c-39 7 -60 -14 -60 -61 0 -37 7 -49 38 -65 33 -17 60 1 67
47 3 20 9 48 12 62 15 60 14 345 -1 420 -8 41 -17 104 -21 140 -9 99 -65 283
-65 214z"/>
<path d="M4963 2316 c-50 -17 -69 -40 -56 -69 8 -17 22 -26 49 -30 21 -4 39
-5 40 -4 2 1 7 21 12 44 13 57 -1 75 -45 59z"/>
<path d="M4957 2142 c-14 -21 -22 -156 -9 -148 12 7 26 99 20 137 -2 17 -5 20
-11 11z"/>
<path d="M4886 1929 c-17 -13 -26 -30 -26 -48 0 -52 -24 -146 -39 -158 -13
-10 -14 -16 -4 -43 16 -42 -11 -93 -50 -98 -31 -4 -67 -45 -67 -76 1 -11 10
-32 20 -45 24 -28 36 -21 75 44 57 98 157 445 127 445 -5 0 -21 -9 -36 -21z"/>
<path d="M4698 1404 c-23 -12 -28 -22 -28 -52 0 -41 -7 -56 -30 -64 -8 -3 -34
-44 -58 -90 -40 -78 -88 -129 -105 -111 -13 12 -18 -26 -7 -47 15 -28 33 -14
65 50 13 25 31 52 39 60 35 28 148 202 153 235 6 40 7 39 -29 19z"/>
<path d="M4385 982 c-5 -4 -19 -23 -29 -42 -28 -52 -46 -70 -98 -96 -32 -16
-50 -32 -54 -49 -7 -27 -31 -45 -59 -45 -29 0 -76 -40 -74 -64 0 -11 1 -26 0
-32 -1 -13 -102 -64 -126 -64 -29 0 -55 -20 -75 -59 -11 -22 -35 -49 -55 -61
-42 -26 -46 -43 -7 -29 95 33 196 99 303 199 62 58 142 132 178 165 85 77 162
165 155 176 -6 11 -45 12 -59 1z"/>
<path d="M3581 431 c-8 -5 -17 -29 -20 -52 -6 -41 -8 -44 -41 -49 -44 -8 -60
-17 -60 -36 0 -20 49 -18 85 4 17 10 42 22 56 25 34 9 139 68 139 79 0 4 -17
8 -37 8 -21 0 -47 7 -57 15 -22 17 -44 19 -65 6z"/>
</g>
</svg>
